<?xml version="1.0" encoding="UTF-8" standalone="no"?>
<!-- Created with Inkscape (http://www.inkscape.org/) -->

<svg
  xmlns:dc="http://purl.org/dc/elements/1.1/"
  xmlns:cc="http://creativecommons.org/ns#"
  xmlns:rdf="http://www.w3.org/1999/02/22-rdf-syntax-ns#"
  xmlns:svg="http://www.w3.org/2000/svg"
  xmlns="http://www.w3.org/2000/svg"
  xmlns:xlink="http://www.w3.org/1999/xlink"
  xmlns:sodipodi="http://sodipodi.sourceforge.net/DTD/sodipodi-0.dtd"
  xmlns:inkscape="http://www.inkscape.org/namespaces/inkscape"
  id="svg2"
  version="1.1"
  inkscape:version="0.92.4 (5da689c313, 2019-01-14)"
  width="1024"
  height="1024"
  sodipodi:docname="Lyt8.svg"
  viewBox="0 0 1024 1024">
 <metadata
   id="metadata8">
  <rdf:RDF>
   <cc:Work
     rdf:about="">
    <dc:format>image/svg+xml</dc:format>
    <dc:type
      rdf:resource="http://purl.org/dc/dcmitype/StillImage" />
    <dc:title />
    <cc:license
      rdf:resource="http://creativecommons.org/publicdomain/zero/1.0/" />
    <dc:date>2019</dc:date>
    <dc:creator>
     <cc:Agent>
      <dc:title>Lazur URH</dc:title>
     </cc:Agent>
    </dc:creator>
   </cc:Work>
   <cc:License
     rdf:about="http://creativecommons.org/publicdomain/zero/1.0/">
    <cc:permits
      rdf:resource="http://creativecommons.org/ns#Reproduction" />
    <cc:permits
      rdf:resource="http://creativecommons.org/ns#Distribution" />
    <cc:permits
      rdf:resource="http://creativecommons.org/ns#DerivativeWorks" />
   </cc:License>
  </rdf:RDF>
 </metadata>
 <defs
   id="defs6">
  <radialGradient
    id="radialGradient4901"
    gradientUnits="userSpaceOnUse"
    cy="3.756099939346313"
    cx="8.824399948120117"
    gradientTransform="matrix(0.96827,0,0,1.0328,3.3536,0.6464499999999997)"
    r="37.75199890136719"
    inkscape:collect="always">
   <stop
     id="stop4897"
     style="stop-color:#808080;stop-opacity:1"
     offset="0" />
   <stop
     id="stop4899"
     style="stop-color:#3c3c3c;stop-opacity:1"
     offset="1" />
  </radialGradient>
  <radialGradient
    inkscape:collect="always"
    r="38.15900039672852"
    gradientTransform="matrix(0.96827,0,0,1.0328,3.3536,0.6464499999999997)"
    cx="8.143600463867188"
    cy="7.267899990081787"
    gradientUnits="userSpaceOnUse"
    id="radialGradient15668">
   <stop
     offset="0"
     style="stop-color:#ffffff"
     id="stop15664" />
   <stop
     offset="1"
     style="stop-color:#f8f8f8"
     id="stop15666" />
  </radialGradient>
  <radialGradient
    id="radialGradient4907"
    gradientUnits="userSpaceOnUse"
    cy="35.73699951171875"
    cx="33.96699905395508"
    gradientTransform="scale(0.9604899999999998,1.0411)"
    r="86.70800018310547"
    inkscape:collect="always">
   <stop
     id="stop4903"
     style="stop-color:#fafafa"
     offset="0" />
   <stop
     id="stop4905"
     style="stop-color:#dadada;stop-opacity:1"
     offset="1" />
  </radialGradient>
  <radialGradient
    inkscape:collect="always"
    xlink:href="#radialGradient4901"
    id="radialGradient10455"
    gradientUnits="userSpaceOnUse"
    gradientTransform="matrix(8.992125921867543e-8,2.585858252832504,-2.58585757897196,8.992123503528572e-8,4517.277638409668,-3191.896558948688)"
    cx="894.6061401367188"
    cy="1684.242309570312"
    fx="894.6061401367188"
    fy="1684.242309570312"
    r="396" />
  <radialGradient
    inkscape:collect="always"
    xlink:href="#radialGradient15668"
    id="radialGradient10457"
    gradientUnits="userSpaceOnUse"
    gradientTransform="matrix(3.442653886854798e-9,2.58585833931102,-2.585858190745316,3.442652938664491e-9,4517.278503886283,-3191.896367079264)"
    cx="894.6060791015625"
    cy="1684.242309570312"
    fx="894.6060791015625"
    fy="1684.242309570312"
    r="396" />
  <radialGradient
    inkscape:collect="always"
    xlink:href="#radialGradient4907"
    id="radialGradient10459"
    gradientUnits="userSpaceOnUse"
    gradientTransform="matrix(2.876667603867032e-7,-11.80975952252325,11.8097397495619,2.876655342701431e-7,7015.058178933531,5415.070757931134)"
    cx="451.96875"
    cy="-518.9776611328125"
    fx="451.96875"
    fy="-518.9776611328125"
    r="86.70800018310547" />
  <radialGradient
    inkscape:collect="always"
    xlink:href="#radialGradient15668-5"
    id="radialGradient10461"
    gradientUnits="userSpaceOnUse"
    gradientTransform="matrix(3.442657652929133e-9,2.585858339311013,-2.585858190744954,3.44265670473872e-9,4517.278503885812,-3191.896367079263)"
    cx="894.6060791015625"
    cy="1684.242309570312"
    fx="894.6060791015625"
    fy="1684.242309570312"
    r="396" />
  <radialGradient
    inkscape:collect="always"
    r="38.15900039672852"
    gradientTransform="matrix(0.96827,0,0,1.0328,3.3536,0.6464499999999997)"
    cx="8.143600463867188"
    cy="7.267899990081787"
    gradientUnits="userSpaceOnUse"
    id="radialGradient15668-5">
   <stop
     offset="0"
     style="stop-color:#ffffff"
     id="stop15664-53" />
   <stop
     offset="1"
     style="stop-color:#f8f8f8"
     id="stop15666-3" />
  </radialGradient>
  <radialGradient
    inkscape:collect="always"
    xlink:href="#radialGradient4895-63"
    id="radialGradient10463"
    gradientUnits="userSpaceOnUse"
    gradientTransform="matrix(2.876667589404871e-7,-11.80975952252326,11.8097397495619,2.876655328239004e-7,7015.058178933531,5415.070757931139)"
    cx="451.96875"
    cy="-518.9776611328125"
    fx="451.96875"
    fy="-518.9776611328125"
    r="86.70800018310547" />
  <radialGradient
    id="radialGradient4895-63"
    gradientUnits="userSpaceOnUse"
    cy="3.756099939346313"
    cx="8.824399948120117"
    gradientTransform="matrix(0.96827,0,0,1.0328,3.3536,0.6464499999999997)"
    r="37.75199890136719"
    inkscape:collect="always">
   <stop
     id="stop4891-37"
     style="stop-color:#bcbcbc;stop-opacity:1"
     offset="0" />
   <stop
     id="stop4893-68"
     style="stop-color:#9c9c9c;stop-opacity:1"
     offset="1" />
  </radialGradient>
 </defs>
 <sodipodi:namedview
   pagecolor="#003af6"
   bordercolor="#ffffff"
   borderopacity="1"
   objecttolerance="10"
   gridtolerance="10"
   guidetolerance="10"
   inkscape:pageopacity="0.7450980392"
   inkscape:pageshadow="2"
   inkscape:window-width="1366"
   inkscape:window-height="705"
   id="namedview4"
   showgrid="true"
   inkscape:zoom="0.474609375"
   inkscape:cx="512"
   inkscape:cy="512"
   inkscape:window-x="-8"
   inkscape:window-y="-8"
   inkscape:window-maximized="1"
   inkscape:current-layer="layer1"
   showguides="false"
   inkscape:guide-bbox="true"
   showborder="true"
   inkscape:showpageshadow="false"
   fit-margin-top="0"
   fit-margin-left="0"
   fit-margin-right="0"
   fit-margin-bottom="0"
   inkscape:pagecheckerboard="true"
   borderlayer="true"
   guidecolor="#00ffe4"
   guideopacity="1"
   guidehicolor="#f001ff"
   guidehiopacity="1"
   inkscape:snap-to-guides="true"
   inkscape:snap-smooth-nodes="true"
   inkscape:snap-object-midpoints="true"
   inkscape:snap-center="true"
   inkscape:snap-global="true">
  <sodipodi:guide
    position="874,34"
    orientation="1,0"
    id="guide4712"
    inkscape:locked="false" />
  <sodipodi:guide
    position="150,990"
    orientation="0,1"
    id="guide4714"
    inkscape:locked="false" />
  <sodipodi:guide
    position="150,34"
    orientation="1,0"
    id="guide4716"
    inkscape:locked="false" />
  <sodipodi:guide
    position="150,34"
    orientation="0,1"
    id="guide4718"
    inkscape:locked="false" />
 </sodipodi:namedview>
 <g
   inkscape:groupmode="layer"
   id="layer1"
   inkscape:label="Layer2"
   transform="translate(-12.066889,912.5718043358496)">
  <g
    id="g6916">
   <g
     id="g6902" />
  </g>
  <g
    id="g9422">
   <path
     style="color:#000000;clip-rule:nonzero;display:inline;overflow:visible;visibility:visible;opacity:1;isolation:auto;mix-blend-mode:normal;color-interpolation:sRGB;color-interpolation-filters:linearRGB;solid-color:#000000;solid-opacity:1;vector-effect:none;fill:#ffffff;fill-opacity:1;fill-rule:nonzero;stroke:none;stroke-width:1.5944699049;stroke-linecap:round;stroke-linejoin:round;stroke-miterlimit:4;stroke-dasharray:none;stroke-dashoffset:0;stroke-opacity:1;marker:none;paint-order:markers stroke fill;color-rendering:auto;image-rendering:auto;shape-rendering:auto;text-rendering:auto;enable-background:accumulate"
     d="m 1036.066888999998,111.4281956641498 h -1023.99999999999818 v -1023.9999999999996 h 1023.99999999999818 z"
     id="path10383"
     inkscape:connector-curvature="0" />
   <g
     id="g9408">
    <path
      id="path10385"
      style="color:#000000;clip-rule:nonzero;display:inline;overflow:visible;visibility:visible;opacity:1;isolation:auto;mix-blend-mode:normal;color-interpolation:sRGB;color-interpolation-filters:linearRGB;solid-color:#000000;solid-opacity:1;vector-effect:none;fill:url(#radialGradient10455);fill-opacity:1;fill-rule:nonzero;stroke:none;stroke-width:8.461432457;stroke-linecap:round;stroke-linejoin:round;stroke-miterlimit:4;stroke-dasharray:none;stroke-dashoffset:0;stroke-opacity:1;marker:none;paint-order:markers stroke fill;color-rendering:auto;image-rendering:auto;shape-rendering:auto;text-rendering:auto;enable-background:accumulate"
      d="m 1002.066888999999,-796.5718043358514 c 5.866565022324,0 11.919405657715,1.6218537601683 17,4.5551362713311 5.080594342286,2.9332825111586 9.511581217509,7.364269386386 12.444863728671,12.4448637286689 2.933282511162,5.0805943422839 4.555136271329,11.1334349776771 4.555136271329,17 v 724.00000000000011 c 0,5.8665650223229 -1.621853760167,11.91940565771597 -4.555136271329,17.00000000000023 -2.933282511162,5.080594342283 -7.364269386385,9.51158121750995 -12.444863728671,12.444863728669016 -5.080594342285,2.933282511163041 -11.133434977676,4.55513627133098 -17,4.55513627133098 h -955.99999999999886 c -5.86656502232404,0 -11.91940565771506,-1.621853760168051 -17.00000000000003,-4.55513627133098 -5.08059434228494,-2.933282511158946 -9.51158121750791,-7.364269386386017 -12.44486372867004,-12.444863728669016 -2.9332825111619,-5.08059434228426 -4.55513627132996,-11.13343497767733 -4.55513627132996,-17.00000000000023 v -724 c 0,-5.8665650223229 1.62185376016806,-11.9194056577162 4.55513627132996,-17 2.93328251116191,-5.0805943422829 7.3642693863851,-9.5115812175098 12.44486372867004,-12.4448637286688 5.08059434228497,-2.933282511163 11.13343497767599,-4.5551362713312 17.00000000000003,-4.5551362713312 z"
      inkscape:connector-curvature="0"
      sodipodi:nodetypes="sssssssssssssssss" />
    <path
      id="path10387"
      style="color:#000000;clip-rule:nonzero;display:inline;overflow:visible;visibility:visible;opacity:1;isolation:auto;mix-blend-mode:normal;color-interpolation:sRGB;color-interpolation-filters:linearRGB;solid-color:#000000;solid-opacity:1;vector-effect:none;fill:url(#radialGradient10457);fill-opacity:1;fill-rule:nonzero;stroke:none;stroke-width:8.461432457;stroke-linecap:round;stroke-linejoin:round;stroke-miterlimit:4;stroke-dasharray:none;stroke-dashoffset:0;stroke-opacity:1;marker:none;paint-order:markers stroke fill;color-rendering:auto;image-rendering:auto;shape-rendering:auto;text-rendering:auto;enable-background:accumulate"
      d="m 46.06688899999995,-772.5718043358513 c -1.72546030068406,0 -3.50570754638693,0.477015811814 -5,1.3397459621558 -1.49429245361306,0.8627301503415 -2.79752388750194,2.1659615842309 -3.66025403784397,3.6602540378442 -0.86273015034202,1.494292453613 -1.33974596215603,3.274539699317 -1.33974596215603,5 v 724 c 0,1.72546030068372 0.47701581181401,3.50570754638681 1.33974596215603,5 0.86273015034203,1.49429245361307 2.16596158423091,2.79752388750308 3.66025403784397,3.66025403784397 1.49429245361307,0.86273015034203 3.27453969931594,1.33974596215603 5,1.33974596215603 h 955.99999999999909 c 1.725460300684,0 3.505707546387,-0.477015811814 5,-1.33974596215603 1.494292453614,-0.86273015034089 2.797523887503,-2.1659615842309 3.660254037845,-3.66025403784397 0.862730150341,-1.49429245361319 1.339745962155,-3.27453969931719 1.339745962155,-5 v -724 c 0,-1.725460300683 -0.477015811814,-3.505707546387 -1.339745962155,-5 -0.862730150342,-1.4942924536133 -2.165961584231,-2.7975238875027 -3.660254037845,-3.6602540378442 -1.494292453613,-0.8627301503418 -3.274539699316,-1.3397459621558 -5,-1.3397459621558 z"
      inkscape:connector-curvature="0"
      sodipodi:nodetypes="sssssssssssssssss" />
    <path
      style="color:#000000;clip-rule:nonzero;display:inline;overflow:visible;visibility:visible;opacity:1;isolation:auto;mix-blend-mode:normal;color-interpolation:sRGB;color-interpolation-filters:linearRGB;solid-color:#000000;solid-opacity:1;vector-effect:none;fill:url(#radialGradient10459);fill-opacity:1;fill-rule:nonzero;stroke:none;stroke-width:24.4136943817;stroke-linecap:round;stroke-linejoin:round;stroke-miterlimit:4;stroke-dasharray:none;stroke-dashoffset:0;stroke-opacity:1;marker:none;paint-order:markers stroke fill;color-rendering:auto;image-rendering:auto;shape-rendering:auto;text-rendering:auto;enable-background:accumulate"
      d="m 988.066888999999,-748.5718043358514 v 696.00000000000011 h -928 v -695.99999999999954 z"
      id="path10389"
      inkscape:connector-curvature="0"
      sodipodi:nodetypes="ccccc" />
    <path
      sodipodi:nodetypes="ccccc"
      style="color:#000000;clip-rule:nonzero;display:inline;overflow:visible;visibility:visible;opacity:1;isolation:auto;mix-blend-mode:normal;color-interpolation:sRGB;color-interpolation-filters:linearRGB;solid-color:#000000;solid-opacity:1;vector-effect:none;fill:url(#radialGradient10461);fill-opacity:1;fill-rule:nonzero;stroke:none;stroke-width:8.461432457;stroke-linecap:round;stroke-linejoin:round;stroke-miterlimit:4;stroke-dasharray:none;stroke-dashoffset:0;stroke-opacity:1;marker:none;paint-order:markers stroke fill;color-rendering:auto;image-rendering:auto;shape-rendering:auto;text-rendering:auto;enable-background:accumulate"
      d="m 852.066888999999,-112.5718043358537 h -731.9999999999979 v -583.9999999999986 l 731.9999999999987,-1e-13 z"
      id="path10391"
      inkscape:connector-curvature="0" />
    <path
      inkscape:connector-curvature="0"
      id="path10393"
      d="m 852.066888999999,-112.5718043358537 h -288 v -288.0000000000003 h 288 z"
      style="color:#000000;clip-rule:nonzero;display:inline;overflow:visible;visibility:visible;opacity:0.660000012;isolation:auto;mix-blend-mode:normal;color-interpolation:sRGB;color-interpolation-filters:linearRGB;solid-color:#000000;solid-opacity:1;vector-effect:none;fill:#ffffff;fill-opacity:1;fill-rule:nonzero;stroke:none;stroke-width:22.394613266;stroke-linecap:round;stroke-linejoin:round;stroke-miterlimit:4;stroke-dasharray:none;stroke-dashoffset:0;stroke-opacity:1;marker:none;paint-order:markers stroke fill;color-rendering:auto;image-rendering:auto;shape-rendering:auto;text-rendering:auto;enable-background:accumulate" />
    <path
      inkscape:connector-curvature="0"
      d="m 852.066888999999,-568.5718043358516 c 1.7254603006837,0 3.505707546384,0.477015811814 5,1.339745962156 1.4942924536109,0.8627301503418 2.797523887499,2.1659615842299 3.6602540378468,3.660254037844 1.20782221048,2.0920094350591 1.8756443470201,4.5843555790436 1.8756443470201,7 0,2.4156444209569 -0.6678221365401,4.9079905649406 -1.8756443470201,7 -0.8627301503419,1.4942924536127 -2.1659615842309,2.7975238875027 -3.6602540378468,3.6602540378451 -1.494292453616,0.8627301503409 -3.2745396993163,1.3397459621549 -5,1.3397459621549 h -521.4641016151366 c -1.725460300685,0 -3.5057075463911,-0.477015811814 -5,-1.3397459621549 -1.4942924536148,-0.8627301503423 -2.797523887506,-2.1659615842323 -3.660254037849,-3.6602540378451 -1.2078222104731,-2.0920094350593 -1.8756443470119,-4.5843555790425 -1.8756443470119,-7 0,-2.4156444209563 0.6678221365389,-4.9079905649403 1.8756443470119,-7 0.8627301503429,-1.494292453614 2.1659615842341,-2.7975238875021 3.660254037849,-3.660254037844 1.4942924536089,-0.862730150342 3.274539699315,-1.339745962156 5,-1.339745962156 z m 0,47.9999999999994 c 1.7254603006837,0 3.505707546384,0.477015811814 5,1.3397459621566 1.4942924536109,0.8627301503418 2.797523887499,2.1659615842299 3.6602540378468,3.6602540378434 1.20782221048,2.0920094350597 1.8756443470201,4.5843555790435 1.8756443470201,6.9999999999999 0,2.4156444209574 -0.6678221365401,4.9079905649412 -1.8756443470201,7 -0.8627301503419,1.4942924536133 -2.1659615842309,2.7975238875033 -3.6602540378468,3.660254037845 -1.494292453616,0.862730150341 -3.2745396993163,1.339745962155 -5,1.339745962155 h -731.9999999999979 c -1.7254603006841,0 -3.505707546391,-0.4770158118149 -5,-1.339745962155 -1.4942924536181,-0.8627301503417 -2.797523887506,-2.165961584232 -3.6602540378481,-3.6602540378453 -1.2078222104769,-2.0920094350588 -1.8756443470129,-4.5843555790423 -1.8756443470129,-7 0,-2.4156444209563 0.667822136538,-4.9079905649401 1.8756443470129,-6.9999999999997 0.8627301503421,-1.4942924536134 2.16596158423,-2.7975238875016 3.6602540378481,-3.6602540378434 1.494292453609,-0.8627301503419 3.2745396993159,-1.3397459621566 5,-1.3397459621566 z m 0,47.9999999999999 c 1.7254603006837,0 3.505707546384,0.477015811814 5,1.3397459621559 1.4942924536109,0.8627301503421 2.797523887499,2.1659615842299 3.6602540378468,3.6602540378441 1.20782221048,2.092009435059 1.8756443470201,4.5843555790435 1.8756443470201,7 0,2.4156444209574 -0.6678221365401,4.9079905649412 -1.8756443470201,7 -0.8627301503419,1.4942924536133 -2.1659615842309,2.7975238875033 -3.6602540378468,3.6602540378451 -1.494292453616,0.862730150341 -3.2745396993163,1.339745962155 -5,1.339745962155 h -731.9999999999979 c -1.7254603006841,0 -3.505707546391,-0.4770158118149 -5,-1.339745962155 -1.4942924536181,-0.8627301503409 -2.797523887506,-2.1659615842322 -3.6602540378481,-3.660254037845 -1.2078222104769,-2.0920094350595 -1.8756443470129,-4.5843555790426 -1.8756443470129,-7.0000000000007 0,-2.4156444209556 0.667822136538,-4.9079905649397 1.8756443470129,-7 0.8627301503421,-1.4942924536135 2.16596158423,-2.7975238875012 3.6602540378481,-3.6602540378432 1.494292453609,-0.8627301503421 3.2745396993159,-1.3397459621568 5,-1.3397459621568 z m 0,48 c 1.7254603006837,0 3.505707546384,0.477015811814 5,1.3397459621559 1.4942924536109,0.8627301503421 2.797523887499,2.1659615842299 3.6602540378468,3.6602540378441 1.20782221048,2.092009435059 1.8756443470201,4.5843555790435 1.8756443470201,6.9999999999989 0,2.4156444209585 -0.6678221365401,4.9079905649414 -1.8756443470201,7 -0.8627301503419,1.4942924536144 -2.1659615842309,2.7975238875044 -3.6602540378468,3.6602540378453 -1.494292453616,0.8627301503409 -3.2745396993163,1.3397459621547 -5,1.3397459621547 h -731.9999999999979 c -1.7254603006841,0 -3.505707546391,-0.4770158118138 -5,-1.3397459621547 -1.4942924536181,-0.8627301503409 -2.797523887506,-2.1659615842309 -3.6602540378481,-3.6602540378453 -1.2078222104769,-2.0920094350586 -1.8756443470129,-4.5843555790414 -1.8756443470129,-7 0,-2.4156444209553 0.667822136538,-4.9079905649393 1.8756443470129,-6.9999999999989 0.8627301503421,-1.4942924536132 2.16596158423,-2.7975238875019 3.6602540378481,-3.6602540378441 1.494292453609,-0.8627301503419 3.2745396993159,-1.3397459621559 5,-1.3397459621559 z m -288,47.9999999999989 c 1.7254603006837,0 3.505707546384,0.4770158118151 5,1.3397459621571 1.4942924536109,0.8627301503421 2.797523887499,2.1659615842298 3.6602540378468,3.6602540378429 1.20782221048,2.0920094350601 1.8756443470201,4.5843555790447 1.8756443470201,7 0,2.4156444209585 -0.6678221365401,4.9079905649423 -1.8756443470201,7 -0.8627301503419,1.4942924536144 -2.1659615842309,2.7975238875044 -3.6602540378468,3.6602540378461 -1.494292453616,0.8627301503399 -3.2745396993163,1.3397459621539 -5,1.3397459621539 h -443.9999999999981 c -1.7254603006841,0 -3.505707546391,-0.4770158118138 -5,-1.3397459621539 -1.4942924536181,-0.8627301503417 -2.797523887506,-2.1659615842319 -3.6602540378481,-3.6602540378461 -1.2078222104769,-2.0920094350577 -1.8756443470129,-4.5843555790414 -1.8756443470129,-7 0,-2.4156444209553 0.667822136538,-4.9079905649393 1.8756443470129,-7 0.8627301503421,-1.494292453613 2.16596158423,-2.7975238875008 3.6602540378481,-3.6602540378429 1.494292453609,-0.862730150342 3.2745396993159,-1.3397459621571 5,-1.3397459621571 z m 0,48 c 1.7254603006837,0 3.505707546384,0.4770158118151 5,1.339745962156 1.4942924536109,0.8627301503432 2.797523887499,2.1659615842318 3.6602540378468,3.660254037844 1.20782221048,2.0920094350591 1.8756443470201,4.5843555790447 1.8756443470201,7 0,2.4156444209585 -0.6678221365401,4.9079905649423 -1.8756443470201,7.0000000000011 -0.8627301503419,1.4942924536133 -2.1659615842309,2.7975238875033 -3.6602540378468,3.660254037845 -1.494292453616,0.862730150341 -3.2745396993163,1.339745962155 -5,1.339745962155 h -443.9999999999981 c -1.7254603006841,0 -3.505707546391,-0.477015811814 -5,-1.339745962155 -1.4942924536181,-0.8627301503417 -2.797523887506,-2.165961584232 -3.6602540378481,-3.6602540378453 -1.2078222104769,-2.0920094350588 -1.8756443470129,-4.5843555790423 -1.8756443470129,-7.000000000001 0,-2.4156444209553 0.667822136538,-4.9079905649409 1.8756443470129,-7 0.8627301503421,-1.4942924536123 2.16596158423,-2.7975238875007 3.6602540378481,-3.6602540378439 1.494292453609,-0.8627301503411 3.2745396993159,-1.3397459621561 5,-1.3397459621561 z m 0,48.0000000000003 c 1.7254603006837,0 3.505707546384,0.4770158118141 5,1.3397459621557 1.4942924536109,0.8627301503428 2.797523887499,2.1659615842309 3.6602540378468,3.6602540378443 1.20782221048,2.0920094350589 1.8756443470201,4.5843555790443 1.8756443470201,7 0,2.4156444209574 -0.6678221365401,4.9079905649412 -1.8756443470201,7 -0.8627301503419,1.4942924536134 -2.1659615842309,2.7975238875032 -3.6602540378468,3.6602540378451 -1.494292453616,0.862730150341 -3.2745396993163,1.339745962155 -5,1.339745962155 h -443.9999999999981 c -1.7254603006841,0 -3.505707546391,-0.477015811814 -5,-1.3397459621547 -1.4942924536181,-0.862730150342 -2.797523887506,-2.165961584232 -3.6602540378481,-3.6602540378453 -1.2078222104769,-2.0920094350588 -1.8756443470129,-4.5843555790423 -1.8756443470129,-7 0,-2.4156444209555 0.667822136538,-4.9079905649411 1.8756443470129,-7 0.8627301503421,-1.4942924536132 2.16596158423,-2.7975238875015 3.6602540378481,-3.6602540378441 1.494292453609,-0.8627301503419 3.2745396993159,-1.3397459621559 5,-1.3397459621559 z m 0,48 c 1.7254603006837,0 3.505707546384,0.4770158118141 5,1.3397459621558 1.4942924536109,0.8627301503428 2.797523887499,2.1659615842309 3.6602540378468,3.6602540378442 1.20782221048,2.0920094350589 1.8756443470201,4.5843555790443 1.8756443470201,7 0,2.4156444209575 -0.6678221365401,4.9079905649412 -1.8756443470201,7 -0.8627301503419,1.4942924536134 -2.1659615842309,2.7975238875033 -3.6602540378468,3.6602540378451 -1.494292453616,0.8627301503409 -3.2745396993163,1.3397459621549 -5,1.3397459621549 l -443.9999999999981,1e-13 c -1.7254603006841,0 -3.505707546391,-0.477015811814 -5,-1.3397459621548 -1.4942924536181,-0.8627301503418 -2.797523887506,-2.1659615842319 -3.6602540378481,-3.6602540378452 -1.2078222104769,-2.0920094350588 -1.8756443470129,-4.5843555790424 -1.8756443470129,-7 0,-2.4156444209556 0.667822136538,-4.9079905649411 1.8756443470129,-7 0.8627301503421,-1.4942924536132 2.16596158423,-2.7975238875015 3.6602540378481,-3.6602540378441 1.494292453609,-0.8627301503419 3.2745396993159,-1.3397459621559 5,-1.3397459621559 z m 0,48 c 1.7254603006837,0 3.505707546384,0.4770158118143 5,1.3397459621552 1.4942924536109,0.8627301503433 2.797523887499,2.1659615842309 3.6602540378468,3.6602540378442 1.20782221048,2.0920094350597 1.8756443470201,4.5843555790449 1.8756443470201,7 0,2.4156444209575 -0.6678221365401,4.9079905649412 -1.8756443470201,7 -0.8627301503419,1.4942924536137 -2.1659615842309,2.7975238875033 -3.6602540378468,3.6602540378451 -1.494292453616,0.8627301503409 -3.2745396993163,1.3397459621549 -5,1.3397459621549 l -443.9999999999981,4e-13 c -1.7254603006841,0 -3.505707546391,-0.4770158118139 -5,-1.3397459621547 -1.4942924536181,-0.8627301503416 -2.797523887506,-2.165961584232 -3.6602540378481,-3.6602540378453 -1.2078222104769,-2.0920094350587 -1.8756443470129,-4.5843555790423 -1.8756443470129,-7 0,-2.4156444209553 0.667822136538,-4.9079905649407 1.8756443470129,-7 0.8627301503421,-1.4942924536131 2.16596158423,-2.7975238875012 3.6602540378481,-3.660254037844 1.494292453609,-0.8627301503415 3.2745396993159,-1.3397459621558 5,-1.3397459621558 z m 0,47.9999999999998 c 1.7254603006837,0 3.505707546384,0.4770158118145 5,1.339745962156 1.4942924536109,0.8627301503427 2.797523887499,2.1659615842309 3.6602540378468,3.660254037844 1.20782221048,2.0920094350593 1.8756443470201,4.5843555790447 1.8756443470201,7 0,2.4156444209579 -0.6678221365401,4.9079905649413 -1.8756443470201,7 -0.8627301503419,1.4942924536133 -2.1659615842309,2.7975238875035 -3.6602540378468,3.6602540378455 -1.494292453616,0.8627301503406 -3.2745396993163,1.3397459621545 -5,1.3397459621545 h -443.9999999999981 c -1.7254603006841,0 -3.505707546391,-0.4770158118139 -5,-1.3397459621545 -1.4942924536181,-0.862730150342 -2.797523887506,-2.1659615842322 -3.6602540378481,-3.6602540378455 -1.2078222104769,-2.0920094350587 -1.875644347014,-4.5843555790421 -1.875644347014,-7 0,-2.4156444209553 0.6678221365389,-4.9079905649407 1.875644347014,-7 0.8627301503421,-1.4942924536131 2.16596158423,-2.7975238875012 3.6602540378481,-3.660254037844 1.494292453609,-0.8627301503415 3.2745396993159,-1.339745962156 5,-1.339745962156 z"
      style="color:#000000;clip-rule:nonzero;display:inline;overflow:visible;visibility:visible;opacity:1;isolation:auto;mix-blend-mode:normal;color-interpolation:sRGB;color-interpolation-filters:linearRGB;solid-color:#000000;solid-opacity:1;vector-effect:none;fill:url(#radialGradient10463);fill-opacity:1;fill-rule:nonzero;stroke:none;stroke-width:24.4136943817;stroke-linecap:round;stroke-linejoin:round;stroke-miterlimit:4;stroke-dasharray:none;stroke-dashoffset:0;stroke-opacity:1;marker:none;paint-order:markers stroke fill;color-rendering:auto;image-rendering:auto;shape-rendering:auto;text-rendering:auto;enable-background:accumulate"
      id="path10395"
      sodipodi:nodetypes="ssssssssssssssssssssssssssssssssssssssssssssssssssssssssssssssssssssssssssssssssssssssssssssssssssssssssssssssssssssssssssssssssssssssssssssssssssssss" />
    <path
      style="fill:#0034f6;fill-opacity:1"
      d="m 606.6937550583487,-376.5717807373272 h 40.1194028320291 l 23.6417909545891,67.3432833251959 h 74.8656713562039 l 23.6417909545893,-67.3432833251959 h 40.4776117858887 l -82.3880593872077,239.9999990844729 h -37.970149108889 z m 77.3731340331999,106.0298503417967 23.6417909545883,67.3432833251967 24.3582088623069,-67.3432833251967 z"
      id="path10397"
      inkscape:connector-curvature="0" />
    <path
      inkscape:connector-curvature="0"
      id="path10399"
      d="m 876.066888999999,-64.57180433585368 c 0,1.72546030068337 -0.4770158118149,3.50570754638726 -1.3397459621532,5.00000000000067 -0.8627301503419,1.4942924536133 -2.1659615842309,2.79752388750182 -3.6602540378468,3.66025403784442 -2.0920094350562,1.2078222104775 -4.584355579045,1.87564434701687 -7,1.87564434701687 -2.41564442096,0 -4.907990564943,-0.66782213653935 -7,-1.87564434701687 -1.494292453616,-0.8627301503426 -2.797523887504,-2.16596158423113 -3.660254037846,-3.66025403784442 -0.8627301503391,-1.49429245361318 -1.339745962154,-3.2745396993173 -1.339745962154,-5.00000000000067 v -561.46410161513722 c 0,-1.7254603006829 0.4770158118166,-3.505707546386 1.339745962154,-5 0.862730150342,-1.4942924536126 2.16596158423,-2.7975238875018 3.660254037846,-3.6602540378435 2.092009435057,-1.2078222104783 4.58435557904,-1.875644347017 7,-1.875644347017 2.415644420955,0 4.9079905649438,0.6678221365387 7,1.875644347017 1.4942924536109,0.8627301503418 2.797523887499,2.1659615842316 3.6602540378468,3.6602540378435 0.8627301503418,1.494292453614 1.3397459621532,3.2745396993171 1.3397459621532,5 z"
      style="color:#000000;clip-rule:nonzero;display:inline;overflow:visible;visibility:visible;opacity:1;isolation:auto;mix-blend-mode:normal;color-interpolation:sRGB;color-interpolation-filters:linearRGB;solid-color:#000000;solid-opacity:1;vector-effect:none;fill:#0034f6;fill-opacity:1;fill-rule:nonzero;stroke:none;stroke-width:0.7173089385;stroke-linecap:round;stroke-linejoin:round;stroke-miterlimit:4;stroke-dasharray:none;stroke-dashoffset:0;stroke-opacity:1;marker:none;paint-order:markers stroke fill;color-rendering:auto;image-rendering:auto;shape-rendering:auto;text-rendering:auto;enable-background:accumulate"
      sodipodi:nodetypes="sssssssssssssss" />
    <path
      sodipodi:nodetypes="sssssssssssssss"
      style="color:#000000;clip-rule:nonzero;display:inline;overflow:visible;visibility:visible;opacity:1;isolation:auto;mix-blend-mode:normal;color-interpolation:sRGB;color-interpolation-filters:linearRGB;solid-color:#000000;solid-opacity:1;vector-effect:none;fill:#0034f6;fill-opacity:1;fill-rule:nonzero;stroke:none;stroke-width:0.7173089385;stroke-linecap:round;stroke-linejoin:round;stroke-miterlimit:4;stroke-dasharray:none;stroke-dashoffset:0;stroke-opacity:1;marker:none;paint-order:markers stroke fill;color-rendering:auto;image-rendering:auto;shape-rendering:auto;text-rendering:auto;enable-background:accumulate"
      d="m 900.066888999999,-112.5718043358537 c 1.7254603006837,0 3.505707546384,0.477015811814 5,1.3397459621558 1.4942924536109,0.8627301503426 2.797523887499,2.1659615842309 3.6602540378468,3.6602540378442 1.20782221048,2.0920094350588 1.8756443470201,4.5843555790442 1.8756443470201,7 0,2.41564442095728 -0.6678221365401,4.90799056494041 -1.8756443470201,7.00000000000001 -0.8627301503419,1.49429245361249 -2.1659615842309,2.79752388750329 -3.6602540378468,3.66025403784566 -1.494292453616,0.86273015034034 -3.2745396993163,1.33974596215434 -5,1.33974596215434 h -793.4641016151367 c -1.7254603006849,0 -3.505707546391,-0.477015811814 -5,-1.33974596215434 -1.4942924536148,-0.86273015034237 -2.79752388750603,-2.16596158423317 -3.66025403784901,-3.66025403784566 -1.20782221047307,-2.09200943505961 -1.87564434701198,-4.58435557904251 -1.87564434701198,-7.00000000000001 0,-2.4156444209558 0.66782213653892,-4.9079905649412 1.87564434701198,-7 0.86273015034298,-1.4942924536133 2.16596158423422,-2.7975238875018 3.66025403784901,-3.6602540378442 1.494292453609,-0.8627301503418 3.2745396993151,-1.3397459621558 5,-1.3397459621558 z"
      id="path10401"
      inkscape:connector-curvature="0" />
    <path
      inkscape:connector-curvature="0"
      id="path10403"
      d="m 876.066888999999,-88.57180433585368 h -24 v -24.00000000000001 h 24 z"
      style="color:#000000;clip-rule:nonzero;display:inline;overflow:visible;visibility:visible;opacity:1;isolation:auto;mix-blend-mode:normal;color-interpolation:sRGB;color-interpolation-filters:linearRGB;solid-color:#000000;solid-opacity:1;vector-effect:none;fill:#0034f6;fill-opacity:1;fill-rule:nonzero;stroke:none;stroke-width:47.161190033;stroke-linecap:round;stroke-linejoin:round;stroke-miterlimit:4;stroke-dasharray:none;stroke-dashoffset:0;stroke-opacity:1;marker:none;paint-order:markers stroke fill;color-rendering:auto;image-rendering:auto;shape-rendering:auto;text-rendering:auto;enable-background:accumulate" />
   </g>
  </g>
 </g>
 <g
   inkscape:groupmode="layer"
   id="layer2"
   inkscape:label="Layer3"
   transform="translate(-12.066889,912.5718043358496)" />
</svg>
